<svg id="visual" viewBox="0 0 900 600" width="900" height="600" xmlns="http://www.w3.org/2000/svg" xmlns:xlink="http://www.w3.org/1999/xlink" version="1.1"><path d="M0 426L25 437.2C50 448.3 100 470.7 150 472C200 473.3 250 453.7 300 449.3C350 445 400 456 450 466.3C500 476.7 550 486.3 600 490.5C650 494.7 700 493.3 750 491.2C800 489 850 486 875 484.5L900 483L900 601L875 601C850 601 800 601 750 601C700 601 650 601 600 601C550 601 500 601 450 601C400 601 350 601 300 601C250 601 200 601 150 601C100 601 50 601 25 601L0 601Z" fill="#0b145c"></path><path d="M0 475L25 478.2C50 481.3 100 487.7 150 496.2C200 504.7 250 515.3 300 513.3C350 511.3 400 496.7 450 491.8C500 487 550 492 600 496.3C650 500.7 700 504.3 750 506.8C800 509.3 850 510.7 875 511.3L900 512L900 601L875 601C850 601 800 601 750 601C700 601 650 601 600 601C550 601 500 601 450 601C400 601 350 601 300 601C250 601 200 601 150 601C100 601 50 601 25 601L0 601Z" fill="#1a2f7a"></path><path d="M0 566L25 565.8C50 565.7 100 565.3 150 570.2C200 575 250 585 300 587.7C350 590.3 400 585.7 450 579.5C500 573.3 550 565.7 600 564C650 562.3 700 566.7 750 561.7C800 556.7 850 542.3 875 535.2L900 528L900 601L875 601C850 601 800 601 750 601C700 601 650 601 600 601C550 601 500 601 450 601C400 601 350 601 300 601C250 601 200 601 150 601C100 601 50 601 25 601L0 601Z" fill="#274a99"></path></svg>

