<svg id="visual" viewBox="0 0 675 900" width="675" height="900" xmlns="http://www.w3.org/2000/svg" xmlns:xlink="http://www.w3.org/1999/xlink" version="1.1"><path d="M0 163L56.3 140.5C112.7 118 225.3 73 337.8 45.8C450.3 18.7 562.7 9.3 618.8 4.7L675 0L675 0L618.8 0C562.7 0 450.3 0 337.8 0C225.3 0 112.7 0 56.3 0L0 0Z" fill="#2a3089"></path><path d="M0 325L56.3 298C112.7 271 225.3 217 337.8 211C450.3 205 562.7 247 618.8 268L675 289L675 0L618.8 4.3C562.7 8.7 450.3 17.3 337.8 44.2C225.3 71 112.7 116 56.3 138.5L0 161Z" fill="#1d2374"></path><path d="M0 379L56.3 349C112.7 319 225.3 259 337.8 250C450.3 241 562.7 283 618.8 304L675 325L675 287L618.8 266C562.7 245 450.3 203 337.8 209C225.3 215 112.7 269 56.3 296L0 323Z" fill="#0e1660"></path><path d="M0 415L56.3 382C112.7 349 225.3 283 337.8 275.5C450.3 268 562.7 319 618.8 344.5L675 370L675 323L618.8 302C562.7 281 450.3 239 337.8 248C225.3 257 112.7 317 56.3 347L0 377Z" fill="#061454"></path><path d="M0 514L56.3 509.5C112.7 505 225.3 496 337.8 497.5C450.3 499 562.7 511 618.8 517L675 523L675 368L618.8 342.5C562.7 317 450.3 266 337.8 273.5C225.3 281 112.7 347 56.3 380L0 413Z" fill="#031349"></path><path d="M0 514L56.3 520C112.7 526 225.3 538 337.8 542.5C450.3 547 562.7 544 618.8 542.5L675 541L675 521L618.8 515C562.7 509 450.3 497 337.8 495.5C225.3 494 112.7 503 56.3 507.5L0 512Z" fill="#031345"></path><path d="M0 559L56.3 590.5C112.7 622 225.3 685 337.8 689.5C450.3 694 562.7 640 618.8 613L675 586L675 539L618.8 540.5C562.7 542 450.3 545 337.8 540.5C225.3 536 112.7 524 56.3 518L0 512Z" fill="#031345"></path><path d="M0 631L56.3 658C112.7 685 225.3 739 337.8 737.5C450.3 736 562.7 679 618.8 650.5L675 622L675 584L618.8 611C562.7 638 450.3 692 337.8 687.5C225.3 683 112.7 620 56.3 588.5L0 557Z" fill="#031349"></path><path d="M0 748L56.3 757C112.7 766 225.3 784 337.8 764.5C450.3 745 562.7 688 618.8 659.5L675 631L675 620L618.8 648.5C562.7 677 450.3 734 337.8 735.5C225.3 737 112.7 683 56.3 656L0 629Z" fill="#061454"></path><path d="M0 757L56.3 772C112.7 787 225.3 817 337.8 802C450.3 787 562.7 727 618.8 697L675 667L675 629L618.8 657.5C562.7 686 450.3 743 337.8 762.5C225.3 782 112.7 764 56.3 755L0 746Z" fill="#0e1660"></path><path d="M0 802L56.3 818.5C112.7 835 225.3 868 337.8 863.5C450.3 859 562.7 817 618.8 796L675 775L675 665L618.8 695C562.7 725 450.3 785 337.8 800C225.3 815 112.7 785 56.3 770L0 755Z" fill="#1d2374"></path><path d="M0 901L56.3 901C112.7 901 225.3 901 337.8 901C450.3 901 562.7 901 618.8 901L675 901L675 773L618.8 794C562.7 815 450.3 857 337.8 861.5C225.3 866 112.7 833 56.3 816.5L0 800Z" fill="#2a3089"></path></svg>